# xmcd
#
# Track frame offsets: 
#        150
#        13622
#        33565
#        53922
#        70397
#        92862
#        108240
#        132925
#        157335
#        174245
#        196035
#        215792
#        235190
#        255920
#
# Disc length: 3701 seconds
#
# Revision: 0
# Processed by: cddbd v1.4PL0 Copyright (c) Steve Scherf et al.
# Submitted via: ExactAudioCopy v0.90b4
#
DISCID=c00e730e
DTITLE=Syl Johnson - Talkin' About Chicago
DYEAR=1999
DGENRE=Blues
TTITLE0=Come on With It
TTITLE1=Cheryl
TTITLE2=Sweet Dynamite!
TTITLE3=Talkin' Bout Chicago
TTITLE4=Diff'rent Strokes [B.E.T.]
TTITLE5=I'm Back into You
TTITLE6=Different Kind of Man
TTITLE7=Surrounded
TTITLE8=Caribbean Beach
TTITLE9=Get Free -- Call Me
TTITLE10=Trade Secret
TTITLE11=Finger Lickin' Good
TTITLE12=All Night Long
TTITLE13=Woo-Wee!
EXTD=
EXTT0=
EXTT1=
EXTT2=
EXTT3=
EXTT4=
EXTT5=
EXTT6=
EXTT7=
EXTT8=
EXTT9=
EXTT10=
EXTT11=
EXTT12=
EXTT13=
PLAYORDER=
